<svg width="104" height="25" viewBox="0 0 104 25" fill="none" xmlns="http://www.w3.org/2000/svg">
<path d="M9 5.28711L11.3175 9.98211L16.5 10.7396L12.75 14.3921L13.635 19.5521L9 17.1146L4.365 19.5521L5.25 14.3921L1.5 10.7396L6.6825 9.98211L9 5.28711Z" stroke="#1FFF1A" stroke-width="1.5" stroke-linecap="round" stroke-linejoin="round"/>
<path d="M27.598 19.7871V5.24165H36.6179V7.13086H29.7926V11.5627H35.9716V13.4448H29.7926V19.7871H27.598ZM42.0472 20.0073C40.9724 20.0073 40.0468 19.7776 39.2702 19.3184C38.4985 18.8543 37.9019 18.2033 37.4805 17.3652C37.0638 16.5224 36.8555 15.5352 36.8555 14.4036C36.8555 13.2862 37.0638 12.3013 37.4805 11.449C37.9019 10.5968 38.489 9.93152 39.2418 9.4533C39.9994 8.97508 40.8848 8.73597 41.8981 8.73597C42.5136 8.73597 43.1102 8.83777 43.6879 9.04137C44.2655 9.24497 44.784 9.56457 45.2433 10.0002C45.7025 10.4358 46.0647 11.0016 46.3299 11.6976C46.5951 12.3889 46.7276 13.2293 46.7276 14.2189V14.9718H38.0558V13.3809H44.6467C44.6467 12.8221 44.533 12.3274 44.3058 11.8965C44.0785 11.4609 43.7589 11.1176 43.3469 10.8667C42.9397 10.6157 42.4615 10.4902 41.9123 10.4902C41.3157 10.4902 40.7949 10.637 40.3498 10.9306C39.9094 11.2194 39.5685 11.5982 39.3271 12.0669C39.0903 12.531 38.9719 13.0352 38.9719 13.5797V14.8226C38.9719 15.5518 39.0998 16.1721 39.3555 16.6834C39.6159 17.1948 39.9781 17.5854 40.4421 17.8553C40.9061 18.1204 41.4483 18.253 42.0685 18.253C42.471 18.253 42.838 18.1962 43.1694 18.0826C43.5008 17.9642 43.7873 17.789 44.0288 17.557C44.2702 17.325 44.4549 17.0385 44.5827 16.6976L46.5927 17.0598C46.4317 17.6517 46.1429 18.1702 45.7262 18.6152C45.3143 19.0556 44.7958 19.3989 44.1708 19.6451C43.5505 19.8865 42.8427 20.0073 42.0472 20.0073ZM51.2585 20.0286C50.5672 20.0286 49.9422 19.9007 49.3835 19.6451C48.8248 19.3846 48.3821 19.0082 48.0554 18.5158C47.7334 18.0234 47.5724 17.4197 47.5724 16.7047C47.5724 16.0892 47.6908 15.5826 47.9276 15.1848C48.1643 14.7871 48.4839 14.4722 48.8864 14.2402C49.2888 14.0082 49.7386 13.833 50.2358 13.7147C50.733 13.5963 51.2396 13.5063 51.7557 13.4448C52.4091 13.369 52.9394 13.3075 53.3466 13.2601C53.7538 13.208 54.0497 13.1252 54.2344 13.0115C54.419 12.8979 54.5114 12.7132 54.5114 12.4576V12.4078C54.5114 11.7876 54.3362 11.307 53.9858 10.9661C53.6402 10.6252 53.1241 10.4547 52.4375 10.4547C51.7225 10.4547 51.1591 10.6133 50.7472 10.9306C50.34 11.2431 50.0582 11.5911 49.902 11.9746L47.9062 11.5201C48.143 10.8572 48.4886 10.3221 48.9432 9.91495C49.4025 9.50302 49.9304 9.20472 50.527 9.02006C51.1236 8.83067 51.7509 8.73597 52.4091 8.73597C52.8447 8.73597 53.3063 8.78806 53.794 8.89222C54.2865 8.99165 54.7457 9.17631 55.1719 9.4462C55.6027 9.71609 55.9555 10.102 56.2301 10.6039C56.5047 11.101 56.642 11.7473 56.642 12.5428V19.7871H54.5682V18.2956H54.483C54.3456 18.5703 54.1397 18.8401 53.8651 19.1053C53.5904 19.3704 53.2377 19.5906 52.8068 19.7658C52.3759 19.941 51.8598 20.0286 51.2585 20.0286ZM51.7202 18.324C52.3073 18.324 52.8092 18.208 53.2259 17.976C53.6473 17.744 53.9669 17.441 54.1847 17.0669C54.4072 16.6882 54.5185 16.2833 54.5185 15.8525V14.4462C54.4427 14.522 54.2959 14.593 54.0781 14.6593C53.8651 14.7208 53.6212 14.7753 53.3466 14.8226C53.072 14.8652 52.8045 14.9055 52.544 14.9434C52.2836 14.9765 52.0658 15.0049 51.8906 15.0286C51.4787 15.0807 51.1023 15.1683 50.7614 15.2914C50.4252 15.4145 50.1553 15.592 49.9517 15.824C49.7528 16.0513 49.6534 16.3543 49.6534 16.7331C49.6534 17.2587 49.8475 17.6564 50.2358 17.9263C50.6241 18.1915 51.1188 18.324 51.7202 18.324ZM63.5629 8.87802V10.5826H57.604V8.87802H63.5629ZM59.2021 6.26438H61.3256V16.584C61.3256 16.9959 61.3872 17.306 61.5103 17.5144C61.6334 17.718 61.792 17.8577 61.9862 17.9334C62.185 18.0044 62.4004 18.04 62.6325 18.04C62.8029 18.04 62.9521 18.0281 63.0799 18.0044C63.2077 17.9808 63.3072 17.9618 63.3782 17.9476L63.7617 19.7019C63.6386 19.7492 63.4634 19.7966 63.2362 19.8439C63.0089 19.896 62.7248 19.9244 62.3839 19.9292C61.8252 19.9386 61.3043 19.8392 60.8214 19.6309C60.3384 19.4225 59.9478 19.1006 59.6495 18.665C59.3512 18.2293 59.2021 17.6825 59.2021 17.0243V6.26438ZM71.8224 15.263V8.87802H73.9531V19.7871H71.8651V17.8979H71.7514C71.5005 18.4803 71.098 18.9656 70.544 19.3539C69.9948 19.7374 69.3106 19.9292 68.4915 19.9292C67.7907 19.9292 67.1705 19.7753 66.6307 19.4675C66.0956 19.155 65.6742 18.6934 65.3665 18.0826C65.0634 17.4718 64.9119 16.7166 64.9119 15.8169V8.87802H67.0355V15.5613C67.0355 16.3046 67.2415 16.8965 67.6534 17.3368C68.0653 17.7772 68.6004 17.9973 69.2585 17.9973C69.6563 17.9973 70.0516 17.8979 70.4446 17.699C70.8423 17.5002 71.1714 17.1995 71.4318 16.7971C71.697 16.3946 71.8272 15.8832 71.8224 15.263ZM75.8065 19.7871V8.87802H77.859V10.611H77.9727C78.1715 10.0239 78.5219 9.5622 79.0238 9.22603C79.5304 8.88512 80.1033 8.71467 80.7425 8.71467C80.8751 8.71467 81.0314 8.7194 81.2113 8.72887C81.396 8.73834 81.5404 8.75018 81.6445 8.76438V10.7956C81.5593 10.772 81.4078 10.7459 81.19 10.7175C80.9722 10.6844 80.7544 10.6678 80.5366 10.6678C80.0347 10.6678 79.5872 10.7743 79.1942 10.9874C78.806 11.1957 78.4982 11.4869 78.271 11.861C78.0437 12.2303 77.93 12.6517 77.93 13.1252V19.7871H75.8065ZM86.7933 20.0073C85.7185 20.0073 84.7929 19.7776 84.0163 19.3184C83.2446 18.8543 82.648 18.2033 82.2266 17.3652C81.8099 16.5224 81.6016 15.5352 81.6016 14.4036C81.6016 13.2862 81.8099 12.3013 82.2266 11.449C82.648 10.5968 83.2351 9.93152 83.9879 9.4533C84.7455 8.97508 85.6309 8.73597 86.6442 8.73597C87.2597 8.73597 87.8563 8.83777 88.4339 9.04137C89.0116 9.24497 89.5301 9.56457 89.9893 10.0002C90.4486 10.4358 90.8108 11.0016 91.076 11.6976C91.3411 12.3889 91.4737 13.2293 91.4737 14.2189V14.9718H82.8018V13.3809H89.3928C89.3928 12.8221 89.2791 12.3274 89.0518 11.8965C88.8246 11.4609 88.505 11.1176 88.093 10.8667C87.6858 10.6157 87.2076 10.4902 86.6584 10.4902C86.0618 10.4902 85.541 10.637 85.0959 10.9306C84.6555 11.2194 84.3146 11.5982 84.0732 12.0669C83.8364 12.531 83.718 13.0352 83.718 13.5797V14.8226C83.718 15.5518 83.8459 16.1721 84.1016 16.6834C84.362 17.1948 84.7242 17.5854 85.1882 17.8553C85.6522 18.1204 86.1944 18.253 86.8146 18.253C87.2171 18.253 87.584 18.1962 87.9155 18.0826C88.2469 17.9642 88.5334 17.789 88.7749 17.557C89.0163 17.325 89.201 17.0385 89.3288 16.6976L91.3388 17.0598C91.1778 17.6517 90.889 18.1702 90.4723 18.6152C90.0604 19.0556 89.5419 19.3989 88.9169 19.6451C88.2966 19.8865 87.5888 20.0073 86.7933 20.0073ZM96.9137 20.0002C96.033 20.0002 95.247 19.7753 94.5558 19.3255C93.8692 18.8709 93.3294 18.2246 92.9364 17.3865C92.5482 16.5437 92.354 15.5328 92.354 14.3539C92.354 13.1749 92.5505 12.1664 92.9435 11.3283C93.3413 10.4902 93.8858 9.84866 94.5771 9.40359C95.2683 8.95851 96.052 8.73597 96.9279 8.73597C97.605 8.73597 98.1495 8.84961 98.5614 9.07688C98.9781 9.29942 99.3001 9.55984 99.5273 9.85813C99.7594 10.1564 99.9393 10.4192 100.067 10.6465H100.195V5.24165H102.319V19.7871H100.245V18.0897H100.067C99.9393 18.3217 99.7546 18.5868 99.5131 18.8851C99.2764 19.1834 98.9497 19.4438 98.533 19.6664C98.1164 19.8889 97.5766 20.0002 96.9137 20.0002ZM97.3825 18.1891C97.9933 18.1891 98.5094 18.0281 98.9308 17.7061C99.3569 17.3794 99.6789 16.9273 99.8967 16.3496C100.119 15.772 100.23 15.0996 100.23 14.3326C100.23 13.575 100.122 12.9121 99.9038 12.3439C99.686 11.7757 99.3664 11.333 98.945 11.0158C98.5236 10.6986 98.0027 10.54 97.3825 10.54C96.7433 10.54 96.2106 10.7057 95.7844 11.0371C95.3583 11.3685 95.0363 11.8207 94.8185 12.3936C94.6055 12.9666 94.4989 13.6129 94.4989 14.3326C94.4989 15.0617 94.6078 15.7175 94.8256 16.2999C95.0434 16.8823 95.3654 17.3439 95.7915 17.6848C96.2224 18.021 96.7527 18.1891 97.3825 18.1891Z" fill="black"/>
</svg>
